<?xml version="1.0" encoding="UTF-8" standalone="no"?>
<!-- Created with Inkscape (http://www.inkscape.org/) -->

<svg
   version="1.1"
   id="svg1"
   width="577.7713"
   height="580.81946"
   viewBox="0 0 577.77131 580.81946"
   xmlns="http://www.w3.org/2000/svg"
   xmlns:svg="http://www.w3.org/2000/svg">
  <defs
     id="defs1" />
  <g
     id="g1"
     transform="translate(-230.8472,-35.534415)">
    <path
       style="fill:#3b82f6;fill-opacity:1;stroke-width:1.30573"
       d="m 496.06638,615.17504 c -66.88321,-5.51045 -132.913,-35.57963 -178.71844,-81.38627 -23.69983,-23.70044 -39.36957,-44.71852 -54.10046,-72.56579 -14.43818,-27.29392 -23.93939,-56.18343 -29.41585,-89.44223 -3.99809,-24.28055 -3.97634,-65.54936 0.0483,-91.50754 4.5794,-29.53686 13.07461,-56.06158 26.73004,-83.45974 34.79895,-69.82033 95.48082,-122.2659 169.6931,-146.660818 40.26025,-13.234263 81.85552,-17.586692 120.71924,-12.631749 69.27562,8.832309 125.87044,35.948373 172.86945,82.826297 31.59298,31.51157 56.31714,71.45469 69.83908,112.82851 10.75043,32.8939 14.93071,59.42421 14.88736,94.48533 -0.0849,68.32454 -23.27583,133.18293 -65.96612,184.48525 -17.01612,20.44885 -50.07988,49.67247 -68.40887,60.46365 l -4.00659,2.35884 v -18.84997 -18.84997 l 7.08272,-5.3475 c 16.91844,-12.77355 34.73432,-30.65365 49.62783,-49.80674 14.93478,-19.20616 31.68897,-52.15048 40.14169,-78.93197 5.80903,-18.40523 6.20264,-17.69175 -9.76032,-17.69175 -7.73452,0 -14.0372,-0.58823 -14.83337,-1.3844 -0.97538,-0.97538 -1.60689,0.27445 -2.13747,4.23026 -1.40875,10.50294 -11.81382,13.87904 -19.39865,6.29422 l -3.91718,-3.91718 h -17.6506 c -14.14533,0 -19.42781,0.53981 -26.59975,2.71822 l -8.94917,2.71823 -0.39361,6.09542 -0.39361,6.09543 -10.77224,0.37923 -10.77224,0.37924 v 89.94103 89.94103 l -4.67772,1.54378 c -4.31414,1.42379 -4.84495,1.3048 -6.82934,-1.5309 -1.1834,-1.69107 -3.98802,-5.1312 -6.23251,-7.64472 -6.06212,-6.78873 -7.06922,-9.44019 -7.06922,-18.61136 0,-7.68959 0.40572,-8.88104 5.2229,-15.33752 2.8726,-3.85015 5.2229,-7.64843 5.2229,-8.44064 0,-0.7922 -2.05651,-4.6324 -4.57004,-8.53379 -5.45781,-8.4714 -5.5822,-10.20007 -1.22996,-17.09445 l 3.34007,-5.29101 -3.99294,-6.22245 c -2.19611,-3.42236 -3.99041,-7.05238 -3.98734,-8.06674 0.003,-1.01435 1.76329,-4.48836 3.91158,-7.72004 2.1483,-3.23167 3.90851,-6.26368 3.91159,-6.7378 0.003,-0.47413 -2.34471,-3.83542 -5.21731,-7.46951 l -5.22291,-6.60747 v -34.68114 c 0,-26.64368 -0.37825,-34.78139 -1.63215,-35.11377 -13.17681,-3.49284 -20.79711,-4.7083 -29.51858,-4.7083 h -10.48334 l -7.38917,-9.46651 c -4.06405,-5.20659 -12.47057,-15.49955 -18.68117,-22.87324 -11.12622,-13.2099 -11.36869,-13.40161 -16.51491,-13.05726 -4.32676,0.2895 -5.29584,0.86379 -5.64798,3.3471 -0.39799,2.80658 -0.9389,2.973 -8.48722,2.61145 l -8.06214,-0.38618 -0.38874,-8.16079 -0.38873,-8.16079 h 9.20238 c 5.26444,0 9.20239,0.55876 9.20239,1.30573 0,0.71815 2.71198,1.30572 6.0266,1.30572 7.01921,0 7.26105,0.22288 30.81707,28.39954 12.60715,15.08011 14.96242,17.30087 18.34874,17.30087 2.92432,0 3.56659,-0.40361 2.5973,-1.63215 -14.36943,-18.21303 -16.46526,-26.78796 -22.47588,-91.95813 -4.00106,-43.38148 -3.30791,-54.44302 4.21602,-67.28164 8.06057,-13.75433 19.8458,-20.38509 42.98148,-24.18278 l 12.80666,-2.10219 V 167.5148 139.30709 l -11.4251,-11.25319 c -8.95568,-8.82093 -12.47531,-11.43685 -16.28405,-12.10287 -5.88153,-1.02849 -8.85117,-4.83219 -8.85117,-11.33711 0,-7.087466 3.64929,-10.893449 10.445,-10.893449 4.45875,0 6.12188,0.721962 8.77889,3.810931 2.80199,3.257508 3.1737,4.691788 2.5596,9.876828 l -0.71841,6.06589 11.64099,11.58706 11.64099,11.58706 0.35025,29.42975 0.35023,29.42976 17.6273,0.8136 c 22.03277,1.01693 42.39802,4.99704 51.39715,10.04487 3.77115,2.11533 8.84524,6.56416 11.59037,10.16212 7.9341,10.39901 9.159,15.38754 9.81342,39.9662 0.68597,25.76363 -1.78005,52.17401 -7.5661,81.03108 -2.12615,10.60379 -3.86572,19.85812 -3.86572,20.56518 0,0.81047 12.48445,1.28556 33.78199,1.28556 h 33.78199 l 0.80223,-5.0168 c 2.18364,-13.65575 2.30908,-35.53483 0.30002,-52.32663 -7.86755,-65.75709 -32.48154,-116.915 -77.37982,-160.82686 -23.98433,-23.45739 -46.97427,-39.26403 -75.84416,-52.146348 -13.15156,-5.868481 -42.35288,-15.637348 -46.74354,-15.637348 -1.55145,0 -1.88275,3.262474 -1.88275,18.540551 v 18.540535 l 18.28016,17.56373 18.28016,17.56373 v 8.42835 c 0,7.08525 0.52019,9.04656 3.26432,12.30777 2.10895,2.50636 3.26431,5.48247 3.26431,8.40863 0,9.94392 -12.02564,14.7009 -19.15099,7.57556 -2.83705,-2.83706 -3.25331,-4.18569 -2.65914,-8.61556 0.38745,-2.88859 1.92777,-6.55416 3.42294,-8.14568 2.06759,-2.20085 2.71848,-4.59738 2.71848,-10.00917 v -7.11549 L 584.92694,131.08924 567.515,113.71313 568.12983,93.483952 c 0.33817,-11.126065 0.0944,-20.707795 -0.54178,-21.292734 -0.63615,-0.584952 -3.36006,-1.455232 -6.05311,-1.93395 l -4.89648,-0.87041 v 24.404397 24.404385 l 13.30522,13.52083 c 7.55745,7.67993 14.36962,13.52083 15.76915,13.52083 4.0211,0 10.09741,7.04699 10.09741,11.71044 0,5.88561 -5.02208,10.4869 -11.44597,10.4869 -8.49944,0 -13.72763,-7.18769 -10.81004,-14.86155 1.21853,-3.20497 0.91451,-4.25574 -2.44093,-8.43626 -2.10805,-2.62641 -7.99,-8.87257 -13.07101,-13.88036 l -9.23818,-9.10506 V 94.779363 68.407329 l -8.34695,-0.893887 c -10.79556,-1.156116 -51.17067,-0.29627 -52.58765,1.119921 -0.59807,0.597722 -1.24372,21.136021 -1.4348,45.640657 l -0.34741,44.55389 -12.02219,12.46416 c -6.61221,6.85528 -13.65369,14.04685 -15.64774,15.98129 l -3.62553,3.51714 v 19.65949 c 0,16.60462 0.30434,19.6595 1.95859,19.6595 1.54009,0 1.95859,1.81351 1.95859,8.48722 v 8.48721 h -8.48722 -8.48722 v -8.48721 c 0,-7.61674 0.26784,-8.48722 2.61145,-8.48722 2.50286,0 2.61145,-0.87049 2.61145,-20.93264 v -20.93263 l 16.40866,-16.98252 16.40865,-16.98253 -0.32851,-41.40769 c -0.18068,-22.774228 -0.48779,-41.750409 -0.68246,-42.169286 -0.19466,-0.418877 -2.14254,-0.499074 -4.3286,-0.178231 l -3.97467,0.583359 v 31.606608 31.60663 l 3.26431,2.83828 c 4.53345,3.94178 4.56265,12.12173 0.0594,16.62502 -4.432,4.43202 -11.42496,4.36246 -15.94603,-0.1586 -2.87242,-2.87244 -3.25687,-4.15908 -2.63284,-8.81162 0.49541,-3.69345 1.85598,-6.41591 4.22467,-8.45337 l 3.49391,-3.00534 -0.10916,-29.49129 c -0.0601,-16.220213 -0.35275,-29.734921 -0.65051,-30.032691 -0.98303,-0.983016 -22.18069,4.952553 -34.0503,9.534437 -15.15098,5.848555 -36.40662,16.966734 -50.35999,26.341784 l -11.09867,7.45702 -0.34716,34.61382 -0.34717,34.61383 9.81368,9.74818 9.81368,9.74817 v 12.11065 c 0,11.24016 0.18771,12.11065 2.61145,12.11065 2.34361,0 2.61145,0.87048 2.61145,8.48722 v 8.48721 h -9.14008 -9.14008 v -8.48721 c 0,-7.61674 0.26784,-8.48722 2.61145,-8.48722 2.39156,0 2.61145,-0.87049 2.61145,-10.33746 v -10.33747 l -9.79294,-10.40996 -9.79295,-10.40996 v -31.48161 c 0,-17.3149 -0.44068,-31.47869 -0.97929,-31.47513 -0.53861,0.004 -2.54809,1.32561 -4.46548,2.93788 l -3.4862,2.9314 -0.57539,27.61563 -0.57538,27.61565 3.73514,3.27753 c 6.13702,5.38514 4.91999,15.07996 -2.38121,18.9686 -4.59827,2.44905 -8.19046,1.77605 -12.26424,-2.29773 -5.09186,-5.09187 -5.05933,-10.34587 0.10041,-16.22253 l 3.91718,-4.46141 v -23.00427 c 0,-12.97496 -0.51883,-23.00425 -1.19005,-23.00425 -1.6964,0 -16.03436,15.82592 -25.17301,27.78543 -21.49436,28.12904 -36.6959,59.78479 -46.11784,96.03588 -1.78673,6.87449 -2.80851,12.83134 -2.27061,13.23744 0.5379,0.40609 6.11929,0.53861 12.4031,0.29448 11.20228,-0.43523 11.4251,-0.50763 11.4251,-3.71271 0,-1.90211 1.66311,-4.93192 3.97775,-7.24657 3.43689,-3.43688 4.6353,-3.87308 8.81365,-3.20794 2.8479,0.45333 6.01789,2.12985 7.71115,4.07818 2.48477,2.85909 3.94773,3.3084 10.77223,3.3084 7.02651,0 7.897,-0.28786 7.897,-2.61145 0,-2.32129 0.87048,-2.61145 7.83435,-2.61145 h 7.83436 v 9.14008 9.14008 h -7.83436 c -6.96387,0 -7.83435,-0.29016 -7.83435,-2.61145 0,-2.34216 -0.87049,-2.61145 -8.44129,-2.61145 -7.08821,0 -8.66397,0.41612 -9.83062,2.59603 -0.76415,1.42782 -2.84134,2.96046 -4.61598,3.40587 -4.03405,1.01248 -4.09869,3.16945 -0.2046,6.82776 2.56163,2.40651 4.55094,2.83905 13.05726,2.83905 9.83375,0 10.03523,-0.0656 10.03523,-3.26432 0,-3.11923 0.34819,-3.26431 7.83435,-3.26431 h 7.83436 v 9.14008 9.14008 h -7.83436 c -6.09339,0 -7.83435,-0.43524 -7.83435,-1.95859 0,-1.69074 -4.64259,-1.95859 -33.94888,-1.95859 h -33.94887 v 5.93594 5.93592 l 6.01008,-0.3111 c 4.56856,-0.23648 6.46832,-1.01044 7.92052,-3.22678 5.07501,-7.74543 16.99896,-5.44606 19.26203,3.71441 3.16741,12.82105 -11.82788,19.7608 -20.06672,9.28681 -2.10698,-2.6786 -3.4623,-3.1453 -8.15293,-2.80741 l -5.62585,0.40524 0.25462,9.14008 c 0.14005,5.02705 0.63347,13.98759 1.09651,19.91232 l 0.84189,10.77224 h 33.1788 c 32.30831,0 33.1788,-0.0686 33.1788,-2.61145 0,-2.32129 0.87048,-2.61145 7.83435,-2.61145 h 7.83436 v 9.14008 9.14008 h -7.83436 c -6.96387,0 -7.83435,-0.29016 -7.83435,-2.61145 0,-2.54149 -0.87049,-2.61145 -32.49145,-2.61145 h -32.49147 l 1.79877,9.44027 c 7.82754,41.08054 31.84027,88.58107 61.80137,122.25172 l 11.17572,12.55943 0.86852,-12.34255 c 0.86577,-12.30367 0.85651,-12.3562 -2.93789,-16.67779 -5.04541,-5.7464 -5.042,-11.044 0.0104,-16.09635 4.24818,-4.24819 7.58564,-4.73957 13.03863,-1.91973 7.10155,3.67237 8.2736,13.88759 2.14639,18.70727 -2.62639,2.06591 -2.98586,3.84893 -3.7833,18.76583 l -0.88119,16.48301 4.90934,4.3118 4.90932,4.31179 0.35262,-28.58077 0.35261,-28.58076 9.76677,-10.03627 9.76665,-10.03628 v -10.71799 c 0,-9.61988 -0.26756,-10.78796 -2.61146,-11.4009 -2.26739,-0.59295 -2.61145,-1.78104 -2.61145,-9.01784 v -8.33494 h 8.48722 8.48722 v 8.34752 c 0,6.21551 -0.50024,8.53949 -1.95859,9.09911 -1.54035,0.59108 -1.95859,3.2627 -1.95859,12.51095 v 11.75938 l -9.74564,10.71708 -9.74563,10.7171 -0.37374,28.81426 c -0.22991,17.72597 0.12874,29.53381 0.93199,30.68411 2.31283,3.31206 24.38985,16.95788 39.17177,24.21209 14.6005,7.16517 41.72247,16.88852 51.4448,18.44318 l 5.35428,0.85619 v -26.18097 -26.18095 l -3.91717,-3.91718 c -5.0907,-5.0907 -5.38362,-11.91041 -0.71221,-16.58181 4.49244,-4.49245 10.30575,-4.2581 15.17563,0.61178 4.83036,4.83036 5.01273,10.23024 0.5256,15.56289 l -3.29112,3.91128 0.35324,27.10683 0.35325,27.10683 3.50815,0.93734 c 1.92947,0.51553 3.83909,0.60638 4.24361,0.20187 0.4045,-0.4045 0.73546,-17.68791 0.73546,-38.40758 v -37.67211 l -16.28355,-17.27718 -16.28355,-17.2772 -0.038,-19.44195 c -0.0316,-16.16127 -0.38525,-19.69584 -2.09582,-20.94664 -1.31715,-0.96311 -2.32234,-4.42216 -2.7928,-9.61045 l -0.73504,-8.10577 h 9.32144 9.32143 v 8.39923 c 0,7.25247 -0.35654,8.51239 -2.61145,9.22807 -2.4492,0.77736 -2.61145,1.97561 -2.61145,19.28573 v 18.45688 l 16.38793,16.56258 16.38794,16.56257 -0.20755,40.87004 c -0.19676,38.74392 -0.0814,40.91634 2.21865,41.76006 1.33442,0.4895 9.18335,1.30687 17.44207,1.81638 26.85602,1.65682 63.36658,-3.3489 89.34031,-12.24885 6.4073,-2.19547 11.77016,-3.84798 11.91747,-3.67223 0.14731,0.17574 1.45332,2.66983 2.90225,5.54243 1.44891,2.87259 5.30712,8.85172 8.5738,13.28695 l 5.93939,8.06404 -10.69832,3.8624 c -22.82153,8.23923 -47.67647,13.48267 -75.33175,15.89211 -16.81595,1.46509 -24.83725,1.44692 -43.59765,-0.0987 z M 468.50196,513.43413 c 0,-2.37448 -0.79064,-3.35869 -2.94372,-3.66444 -3.55231,-0.50443 -5.24208,2.85749 -2.87177,5.71354 2.44642,2.94776 5.81549,1.76066 5.81549,-2.0491 z m -119.93973,-35.9062 c 0.89677,-2.33695 -1.69121,-5.85914 -4.3051,-5.85914 -2.22315,0 -3.62566,3.1802 -2.59126,5.87577 0.97709,2.54625 5.91746,2.53433 6.89636,-0.0166 z m 384.08582,-88.90034 c 0.54665,-3.80739 -2.99739,-6.61267 -5.61235,-4.44244 -1.07722,0.89402 -1.95859,2.67973 -1.95859,3.96824 0,4.47795 6.93372,4.91224 7.57094,0.4742 z m -12.04014,-8.9979 c 2.79538,-3.01626 4.12565,-3.46533 9.09466,-3.07012 3.20119,0.2546 5.82035,0.333 5.82035,0.17423 0,-0.15877 -2.38229,-2.51331 -5.29396,-5.23232 l -5.29395,-4.94363 -10.33648,0.65286 -10.33648,0.65286 -4.60831,7.66612 c -2.53458,4.21637 -4.60833,7.97155 -4.60833,8.34484 0,0.37329 5.01484,0.36585 11.14409,-0.0166 9.98261,-0.62279 11.48535,-1.06349 14.41841,-4.22831 z m 51.87964,-1.64674 c 0.30715,-0.53861 0.95031,-3.15228 1.42927,-5.80816 l 0.87085,-4.82887 -18.98155,-0.39403 c -10.43984,-0.21672 -18.98062,-0.12248 -18.97951,0.2094 0.001,0.33189 2.47467,3.12288 5.4968,6.2022 l 5.49477,5.59876 h 12.05547 c 6.63052,0 12.30677,-0.44069 12.6139,-0.9793 z m -166.2315,-27.09381 v -17.6273 h 6.75045 6.75046 l 17.78966,17.6273 17.78967,17.6273 h 15.93739 c 10.97609,0 15.93738,-0.45928 15.93738,-1.47537 0,-0.81144 -10.1357,-11.37499 -22.52377,-23.47454 l -22.52378,-21.99917 16.97444,-17.28982 c 9.33594,-9.50941 18.88406,-19.14962 21.21805,-21.42268 2.33398,-2.27307 4.24361,-4.78808 4.24361,-5.58891 0,-0.98841 -4.93357,-1.45606 -15.36113,-1.45606 h -15.36112 l -16.93675,16.97444 -16.93676,16.97444 h -6.8739 -6.8739 V 292.73533 275.7119 l -12.07797,0.37542 -12.07796,0.37544 -0.34419,44.38604 c -0.18929,24.41232 -0.0608,45.1244 0.28546,46.02684 0.44116,1.14965 4.1595,1.6408 12.42215,1.6408 h 11.79251 z m -318.08422,-32.3932 c 1.15804,-1.89164 0.9366,-2.73946 -1.11297,-4.26121 -2.94076,-2.18341 -4.54222,-1.92327 -6.41244,1.04165 -0.93943,1.48931 -0.81194,2.71399 0.43951,4.22189 2.151,2.5918 5.14487,2.1683 7.0859,-1.00233 z m 9.93289,-25.31373 c 0,-0.49932 -1.57887,-2.55584 -3.5086,-4.57004 -3.39498,-3.54359 -3.93978,-3.66219 -16.82215,-3.66219 -12.70287,0 -13.34965,0.13475 -14.10086,2.93788 -1.67368,6.2453 -1.79047,6.2022 16.80431,6.2022 9.69502,0 17.6273,-0.40854 17.6273,-0.90785 z m 7.06432,-16.88495 c 0.91452,-2.38319 -1.29955,-5.71027 -3.8,-5.71027 -2.50045,0 -4.71452,3.32708 -3.8,5.71027 0.44829,1.16824 2.1583,2.12409 3.8,2.12409 1.6417,0 3.35171,-0.95585 3.8,-2.12409 z m 365.31355,-47.06324 c 3.63145,-3.28642 3.0828,-10.12228 -1.07492,-13.39275 -3.22956,-2.54037 -5.1012,-2.70622 -30.5399,-2.70622 -24.53203,0 -27.38537,0.23148 -30.11677,2.44322 -4.28459,3.46946 -4.18896,11.29607 0.18179,14.87763 3.05926,2.50686 4.42205,2.5842 31.19168,1.77012 23.29082,-0.7083 28.38998,-1.21084 30.35812,-2.992 z M 348.37517,198.77206 c 0,-3.89674 -4.51128,-5.176 -7.1292,-2.0216 -1.36656,1.6466 -1.36656,2.39661 0,4.04321 2.61792,3.1544 7.1292,1.87514 7.1292,-2.02161 z m 263.10378,-24.04199 c 0,-2.55278 -3.26385,-4.85272 -5.6093,-3.95268 -3.01493,1.15693 -3.68172,4.15413 -1.42603,6.40982 2.27224,2.27224 7.03533,0.60871 7.03533,-2.45714 z M 586.4722,159.75026 c 2.72276,-1.72549 1.22726,-5.9685 -2.27917,-6.46641 -3.73952,-0.53101 -5.64515,2.03295 -3.91445,5.26679 1.36713,2.55452 3.4263,2.95336 6.19362,1.19962 z M 469.99474,147.17927 c 0.76306,-1.98851 -1.56098,-5.85915 -3.51799,-5.85915 -2.08881,0 -5.02888,4.03558 -4.30824,5.91356 0.9673,2.52071 6.85377,2.47979 7.82623,-0.0544 z M 598.20437,105.6004 c 0.63288,-3.3186 -1.57228,-5.19461 -4.87415,-4.14664 -2.65789,0.84359 -3.70157,4.52356 -1.81732,6.40781 1.71101,1.71101 6.22483,0.18572 6.69147,-2.26117 z m 49.83491,399.3644 v -81.60787 h 7.18149 7.1815 v 78.83563 78.83562 l -6.44426,2.77225 c -3.54434,1.52474 -6.77601,2.77224 -7.18149,2.77224 -0.40548,0 -0.73724,-36.72354 -0.73724,-81.60787 z m -152.30379,72.5069 c -7.71388,-3.19044 -9.36944,-13.74753 -3.0776,-19.625 l 3.91718,-3.65919 v -32.78349 -32.78349 l -7.47083,-8.14944 c -4.10895,-4.48219 -9.98472,-10.78327 -13.05726,-14.00239 l -5.58643,-5.85295 v -15.48734 c 0,-14.38922 -0.18517,-15.53575 -2.61145,-16.17024 -2.2674,-0.59295 -2.61145,-1.78104 -2.61145,-9.01784 v -8.33494 h 9.14008 9.14008 v 9.14009 c 0,8.26959 -0.24872,9.14008 -2.61145,9.14008 -2.44773,0 -2.61145,0.87049 -2.61145,13.88404 v 13.88405 l 12.40439,13.39539 12.4044,13.3954 v 35.19304 c 0,33.01687 0.15465,35.33298 2.50104,37.45643 2.35467,2.13096 2.69852,2.13401 5.87577,0.0522 l 3.37472,-2.21123 v -40.2269 -40.22688 l -4.07818,-4.0782 c -3.50251,-3.50251 -3.97119,-4.73762 -3.32014,-8.74961 1.43977,-8.87226 8.85652,-12.89001 16.49919,-8.93784 7.36722,3.80975 8.57263,11.92649 2.65067,17.84847 l -3.91718,3.91718 V 514.63055 554.78 l 3.26431,3.06667 c 4.49909,4.22668 4.57639,12.67514 0.15397,16.82979 -3.70294,3.47873 -9.8886,3.9502 -14.25873,1.08677 -2.65983,-1.74278 -3.43028,-1.78661 -4.96747,-0.28261 -2.49566,2.44177 -7.77593,3.38499 -11.14618,1.99105 z m 7.36821,-8.52633 c 2.00062,-2.4106 -0.32138,-5.87576 -3.93737,-5.87576 -2.921,0 -4.41507,3.67821 -2.45391,6.04126 1.94074,2.33844 4.3653,2.27566 6.39128,-0.1655 z m 17.59232,-0.15155 c 2.42027,-2.42027 2.12176,-4.29407 -0.99754,-6.26166 -3.37757,-2.13052 -6.9122,1.89449 -4.92478,5.60802 1.7737,3.31417 3.11387,3.46208 5.92232,0.65364 z m 1.67131,-103.8537 c 2.10392,-2.10391 -0.3539,-6.32859 -3.68184,-6.32859 -2.88656,0 -4.51764,2.85398 -3.35807,5.87577 0.89104,2.32201 4.91208,2.58066 7.03991,0.45282 z m -78.13445,97.76153 c -5.71353,-4.38672 -6.36821,-14.98299 -1.1279,-18.25561 1.77915,-1.11111 2.54678,-3.04547 2.54678,-6.41776 0,-4.34332 -1.11266,-5.90599 -11.09867,-15.58745 l -11.09867,-10.76019 v -40.93853 c 0,-35.18526 -0.27525,-41.04413 -1.95859,-41.69009 -1.45836,-0.55962 -1.95859,-2.8836 -1.95859,-9.09911 v -8.34752 h 8.48722 8.48721 v 8.33494 c 0,7.2368 -0.34405,8.42489 -2.61145,9.01784 -2.53791,0.66367 -2.61145,1.78102 -2.61145,39.67932 v 38.99642 l 11.09867,11.04101 c 10.40944,10.35538 11.09867,11.38118 11.09867,16.51874 0,4.34539 0.80975,6.28746 3.91718,9.3949 5.0907,5.0907 5.38361,11.91041 0.71221,16.5818 -3.52276,3.52277 -10.31324,4.27178 -13.88262,1.53129 z m 9.79068,-7.84605 c 1.73667,-2.75319 -1.66852,-6.63509 -4.77471,-5.44314 -3.10357,1.19095 -3.75958,4.16804 -1.43147,6.49615 2.36741,2.36743 4.25013,2.04798 6.20618,-1.05301 z m -80.51357,-40.07469 c -2.97005,-2.33623 -3.59034,-3.84328 -3.59034,-8.72297 0,-4.91991 0.65004,-6.46922 3.91718,-9.33607 3.01483,-2.64548 3.91718,-4.53979 3.91718,-8.22345 0,-4.25915 1.29404,-6.12026 11.75153,-16.9013 l 11.75153,-12.11513 v -14.92045 c 0,-13.82235 -0.1922,-14.97072 -2.61145,-15.60337 -2.26739,-0.59295 -2.61145,-1.78104 -2.61145,-9.01784 v -8.33494 h 8.48722 8.48722 v 8.34752 c 0,6.21551 -0.50024,8.53949 -1.95859,9.09911 -1.59838,0.61335 -1.95859,3.79448 -1.95859,17.29703 v 16.54546 l -12.4044,12.62558 c -6.82242,6.94407 -12.40439,13.73365 -12.40439,15.08794 0,1.35429 1.60247,4.13497 3.56106,6.1793 4.50153,4.69857 4.93169,12.66943 0.90124,16.69988 -4.11536,4.11536 -10.91387,4.69267 -15.23495,1.2937 z m 10.77265,-8.39645 c 0,-2.59806 -3.28026,-4.84642 -5.71027,-3.91394 -2.46594,0.94626 -2.79761,4.56279 -0.61833,6.74207 1.83024,1.83023 6.3286,-0.17998 6.3286,-2.82813 z m 57.66006,-5.4686 c -4.31851,-3.0248 -5.80598,-7.833 -4.05992,-13.1236 1.68799,-5.11467 4.55656,-6.98339 10.71984,-6.98339 5.98635,0 10.1064,4.44999 10.1064,10.91575 0,9.15926 -9.43083,14.32922 -16.76632,9.19124 z m 9.51619,-7.99458 c 1.01096,-2.63452 -2.50679,-5.76618 -5.28119,-4.70154 -1.89194,0.72601 -2.49584,4.54698 -0.96118,6.08163 1.67278,1.67279 5.38588,0.85188 6.24237,-1.38009 z M 359.72436,405.0449 c -2.49399,-1.52054 -5.37899,-4.96743 -6.82639,-8.1559 -2.35933,-5.19736 -2.50855,-9.21867 -2.53553,-68.33054 l -0.0287,-62.80818 2.94842,-4.43671 c 1.62163,-2.44018 5.56538,-5.75875 8.76389,-7.37458 5.76927,-2.91456 6.27229,-2.93784 63.31717,-2.9306 60.02514,0.008 65.30731,0.42916 71.00945,5.6672 6.23389,5.7265 6.73101,8.28304 6.73101,34.61596 v 24.75142 l -4.43109,-1.35994 c -5.48955,-1.68479 -10.01997,-0.62349 -14.7664,3.45923 -3.02955,2.6059 -3.65272,4.18193 -3.65272,9.23787 0,5.28594 0.59067,6.62369 4.44536,10.06785 4.09068,3.65503 5.00222,3.91445 11.4251,3.25155 l 6.97975,-0.72037 -0.003,26.3466 c -0.003,29.56615 -0.78598,32.90808 -9.00471,38.39855 l -4.43613,2.96391 -62.80817,-0.005 c -60.68104,-0.005 -62.95448,-0.094 -67.12771,-2.63842 z m 116.80518,-31.63199 c -0.45287,-3.77028 -0.8285,-8.4709 -0.83474,-10.44581 l -0.0118,-3.59074 h -39.22898 -39.22899 l 0.38364,-9.46652 0.38363,-9.46651 37.53963,-0.34646 37.53962,-0.34645 V 329.34466 318.9389 l -37.53962,-0.34645 -37.53963,-0.34646 -0.38363,-9.46651 -0.38364,-9.46652 h 39.22899 c 37.32349,0 39.22898,-0.11751 39.22898,-2.41991 0,-1.33096 0.3775,-6.03157 0.83888,-10.44581 l 0.83886,-8.02589 h -50.45645 -50.45646 v 50.92331 50.92331 h 50.45237 50.45232 z m -189.47597,21.56233 c -3.05233,-3.05235 -3.47052,-4.33619 -2.87024,-8.81162 0.7899,-5.88916 5.69985,-11.11855 10.43936,-11.11855 3.08753,0 8.67081,3.28673 10.40198,6.12338 0.73575,1.20559 4.49615,1.71097 12.73082,1.71097 10.81617,0 11.68666,-0.19451 11.68666,-2.61145 0,-2.32129 0.87048,-2.61145 7.83435,-2.61145 h 7.83436 v 9.14008 9.14008 h -7.83436 c -6.93876,0 -7.83435,-0.29569 -7.83435,-2.58658 0,-3.3153 -4.27468,-4.41895 -14.30535,-3.6934 -6.59139,0.47678 -8.23411,1.14713 -11.57496,4.72353 -5.13378,5.49574 -11.38233,5.72095 -16.50827,0.59501 z m 12.35688,-7.41184 c 0,-2.97462 -3.85483,-5.36281 -6.23393,-3.86211 -3.03473,1.91426 -3.31384,3.80681 -0.91518,6.20549 1.59838,1.59836 2.71659,1.78161 4.62834,0.75847 1.38642,-0.742 2.52077,-2.13782 2.52077,-3.10185 z m 240.75031,6.33883 c -3.8825,-4.11665 -5.01566,-4.60007 -9.94711,-4.24361 -4.62963,0.33465 -5.63563,0.8963 -5.98272,3.34018 -0.37913,2.66953 -1.12455,2.93788 -8.16079,2.93788 h -7.74354 v -9.14008 -9.14008 h 8.48722 c 7.61673,0 8.48722,0.26784 8.48722,2.61145 0,2.24567 0.87049,2.61145 6.21454,2.61145 4.83774,0 6.58249,-0.58917 7.87534,-2.65934 6.40512,-10.25625 23.05321,-2.08466 19.73624,9.68739 -2.69048,9.54864 -11.89917,11.4882 -18.9664,3.99476 z m 12.09472,-5.16366 c 0.89677,-2.33695 -1.69122,-5.85915 -4.3051,-5.85915 -2.22315,0 -3.62566,3.1802 -2.59126,5.87577 0.97709,2.54626 5.91746,2.53434 6.89636,-0.0166 z m -44.14816,-24.14225 -0.43358,-9.14303 8.81365,0.003 c 7.94218,0.003 8.81365,0.26115 8.81365,2.61439 0,2.37932 0.87049,2.61145 9.79294,2.61145 h 9.79295 v 3.91718 3.91718 h -9.64066 c -8.54253,0 -9.71844,0.29746 -10.32356,2.61145 -0.58737,2.24611 -1.78103,2.61145 -8.53236,2.61145 h -7.84945 z m -226.47787,-12.8794 c -6.57421,-4.09853 -7.18362,-11.83941 -1.42721,-18.12865 3.99449,-4.36423 10.56364,-3.94899 15.49192,0.97929 3.89519,3.89519 4.00087,3.91718 18.83257,3.91718 14.04493,0 14.91542,-0.1524 14.91542,-2.61145 0,-2.32129 0.87048,-2.61145 7.83435,-2.61145 h 7.83436 v 9.14008 9.14008 h -7.83436 c -6.96387,0 -7.83435,-0.29016 -7.83435,-2.61145 0,-2.46069 -0.87049,-2.61145 -15.07849,-2.61145 -14.44853,0 -15.1986,0.13643 -17.95373,3.26571 -3.94871,4.48496 -9.68022,5.31173 -14.78048,2.13211 z m 9.29378,-9.315 c 0,-2.39304 -0.78571,-3.37589 -2.94372,-3.68233 -1.76571,-0.25073 -3.25856,0.40242 -3.73045,1.63216 -1.30007,3.38792 0.52214,6.18808 3.73045,5.7325 2.15801,-0.30644 2.94372,-1.28929 2.94372,-3.68233 z m 195.66819,-7.01432 c -2.75086,-2.3662 -3.56955,-4.19429 -3.46888,-7.74588 0.1691,-5.96558 1.06471,-7.30455 6.36799,-9.52039 4.96601,-2.07493 8.95638,-1.068 12.83625,3.23913 2.28362,2.53509 3.84274,2.7613 19.03184,2.7613 15.95917,0 16.65296,-0.11543 19.61113,-3.26432 4.34723,-4.62743 11.86234,-4.54245 15.57394,0.17609 3.58993,4.56385 3.41804,9.02374 -0.49875,12.94052 -4.26521,4.26523 -10.24084,4.24084 -14.54103,-0.0594 -3.12857,-3.12857 -3.93311,-3.26431 -19.34699,-3.26431 -15.9038,0 -16.13751,0.0436 -21.01181,3.91718 -5.94489,4.7244 -9.76439,4.93961 -14.55369,0.82003 z m -157.14927,-9.96012 c 0,-2.46637 -0.87049,-2.61145 -15.66872,-2.61145 h -15.66871 v -3.91718 -3.91718 h 15.66871 c 14.79823,0 15.66872,-0.14508 15.66872,-2.61145 0,-2.32129 0.87048,-2.61145 7.83435,-2.61145 h 7.83436 v 9.14008 9.14008 h -7.83436 c -6.96387,0 -7.83435,-0.29016 -7.83435,-2.61145 z m 178.08018,-8.41095 c -1.92681,-5.02117 -0.0641,-6.59334 8.28506,-6.99259 7.69157,-0.3678 8.14927,-0.22092 8.92347,2.86368 0.44881,1.78824 0.43224,3.87233 -0.0368,4.63129 -1.35564,2.19346 -16.30505,1.75611 -17.17172,-0.50238 z m -0.50145,-20.31502 v -9.14008 h 8.3964 c 7.71326,0 8.43036,0.23902 8.81365,2.93788 0.43999,3.09806 0.74306,3.13875 26.20533,3.51785 4.33298,0.0645 4.89648,0.44856 4.89648,3.33721 v 3.26432 h -15.13809 c -14.03998,0 -15.18763,0.18943 -15.821,2.61145 -0.59295,2.26739 -1.78104,2.61145 -9.01784,2.61145 h -8.33493 z m 34.36066,-11.76065 c -1.56888,-0.63211 -3.49919,-2.3576 -4.28955,-3.83441 -2.046,-3.823 -11.72321,-3.87905 -12.71834,-0.0736 -0.59295,2.26739 -1.78104,2.61145 -9.01784,2.61145 h -8.33493 v -9.14008 -9.14008 h 8.48722 c 7.61673,0 8.48721,0.26784 8.48721,2.61145 0,1.69745 0.91401,2.65715 2.61146,2.74203 1.43629,0.0718 4.00749,0.18933 5.71376,0.26114 1.85189,0.078 4.35178,-1.29098 6.2022,-3.39628 1.70494,-1.93978 4.98597,-3.88875 7.29119,-4.33108 3.5045,-0.67244 4.84172,-0.15378 8.16078,3.16527 9.58512,9.58513 0.0461,23.61673 -12.59316,18.52425 z m 8.07543,-10.43669 c 0,-2.39304 -0.78571,-3.37589 -2.94372,-3.68233 -1.76571,-0.25073 -3.25856,0.40242 -3.73045,1.63216 -1.30007,3.38792 0.52214,6.18808 3.73045,5.7325 2.15801,-0.30644 2.94372,-1.28929 2.94372,-3.68233 z m -153.4228,-35.75518 c 0,-7.2368 0.34406,-8.42489 2.61145,-9.01784 2.42861,-0.63509 2.61145,-1.78102 2.61145,-16.36732 v -15.68444 l -11.27835,-10.4554 c -10.55448,-9.78437 -11.34646,-10.88627 -12.33954,-17.16847 -0.75028,-4.74625 -1.99358,-7.44648 -4.24362,-9.21635 -6.45326,-5.07614 -5.38423,-15.17849 2.01087,-19.00263 11.18472,-5.78385 22.06446,10.02641 12.71938,18.48359 -1.60062,1.44854 -2.53745,3.99945 -2.53745,6.9093 0,4.05077 1.43216,6.07335 11.75154,16.59618 l 11.75153,11.98324 v 17.15032 c 0,14.37424 0.31703,17.15032 1.95859,17.15032 1.54009,0 1.95859,1.81351 1.95859,8.48722 v 8.48721 h -8.48722 -8.48722 z m -12.4044,-86.98306 c 0,-2.39304 -0.7857,-3.37589 -2.94372,-3.68233 -1.7657,-0.25073 -3.25855,0.40243 -3.73044,1.63216 -1.30007,3.38793 0.52213,6.18808 3.73044,5.7325 2.15802,-0.30644 2.94372,-1.28929 2.94372,-3.68233 z m 35.90747,86.83078 c 0,-6.67371 0.4185,-8.48722 1.95859,-8.48722 1.7023,0 1.95859,-5.76998 1.95859,-44.09548 v -44.09547 l 11.75153,-11.69709 c 9.21968,-9.17695 11.75153,-12.4854 11.75153,-15.35604 0,-2.08701 -0.86218,-3.98979 -2.00689,-4.42906 -2.65481,-1.01874 -5.82746,-7.30519 -5.82746,-11.546823 0,-8.622191 13.26273,-13.264818 19.35828,-6.776404 4.09988,4.364128 3.89077,12.509157 -0.42526,16.563847 -2.34692,2.20483 -3.26431,4.43123 -3.26431,7.92213 0,4.36833 -1.17899,6.0412 -11.75154,16.67432 l -11.75153,11.81887 v 42.5086 c 0,41.63811 0.0535,42.5086 2.61145,42.5086 2.34361,0 2.61145,0.87048 2.61145,8.48722 v 8.48721 h -8.48721 -8.48722 z m 34.78879,-137.11785 c 0.89678,-2.336949 -1.69121,-5.859145 -4.30509,-5.859145 -2.22316,0 -3.62566,3.1802 -2.59127,5.875765 0.97709,2.54626 5.91746,2.53434 6.89636,-0.0166 z m 10.91162,137.27013 c 0,-7.2368 0.34405,-8.42489 2.61145,-9.01784 2.42823,-0.635 2.61145,-1.78102 2.61145,-16.33429 v -15.65137 l 12.4044,-13.26885 12.40439,-13.26884 V 135.23441 99.261006 l -3.26431,-3.879416 c -6.72681,-7.99436 -2.45705,-19.347764 7.27626,-19.347764 3.43559,0 6.01518,0.887045 7.81572,2.687589 2.32581,2.325811 3.26569,2.496796 6.98222,1.270236 11.81859,-3.900491 20.08847,9.545575 11.87467,19.307117 l -3.26431,3.879412 v 34.84013 34.84012 l 3.91718,3.91718 c 7.78659,7.78658 3.30169,19.43356 -7.44858,19.34348 -5.41307,-0.0453 -8.28081,-1.68602 -10.61831,-6.07484 -2.42254,-4.54848 -1.7971,-7.83903 2.39817,-12.61718 l 3.91718,-4.46141 v -35.18105 -35.18105 l -3.15322,-2.962313 c -2.17579,-2.044023 -3.99718,-2.694444 -5.87577,-2.098198 -2.67729,0.849741 -2.72254,1.494782 -2.72254,38.808961 v 37.94486 l -12.4044,12.92362 -12.40439,12.92362 v 14.98268 c 0,12.44747 0.33141,14.9827 1.95858,14.9827 1.54009,0 1.95859,1.81351 1.95859,8.48722 v 8.48721 h -8.48722 -8.48721 z m 57.97145,-52.13137 c 1.15072,-1.8883 0.92638,-2.74215 -1.11957,-4.26121 -1.40726,-1.04484 -3.12801,-1.70993 -3.8239,-1.47796 -2.22861,0.74286 -3.85305,4.41092 -2.97118,6.70904 1.08569,2.82926 5.96377,2.23148 7.91465,-0.96987 z m -1.17238,-95.425635 c 0,-3.901509 -4.05512,-5.78686 -6.71839,-3.123596 -1.84727,1.847275 -1.92138,2.529883 -0.46519,4.284491 2.3252,2.801696 7.18358,2.016563 7.18358,-1.160895 z m -17.6273,-3.945551 c 0,-2.554809 -3.56221,-5.099591 -5.88875,-4.206814 -3.23346,1.240805 -3.94667,4.925198 -1.32452,6.842552 2.68399,1.962585 7.21327,0.307577 7.21327,-2.635738 z m -63.75297,86.306246 c -6.29995,-6.70599 -1.50654,-19.1753 7.37132,-19.1753 4.32482,0 10.12751,4.03271 11.35142,7.88892 1.1306,3.56219 -1.65566,11.4337 -4.60608,13.01272 -4.36986,2.33868 -11.0672,1.51965 -14.11666,-1.72634 z m 9.45855,-4.29915 c 2.41571,-0.927 2.71835,-4.56081 0.55962,-6.71954 -1.03597,-1.03597 -2.25807,-1.10312 -3.91717,-0.2152 -2.77328,1.48421 -3.10452,3.90046 -0.84455,6.16043 1.83107,1.83107 1.57244,1.78342 4.2021,0.77431 z"
       id="path1" />
  </g>
</svg>
